<?xml version="1.0" encoding="UTF-8"?>
<svg id="Layer_2" data-name="Layer 2" xmlns="http://www.w3.org/2000/svg" viewBox="0 0 2175.31 2175.31">
  <defs>
    <style>
      .cls-1 {
        fill: #f05a2a;
      }

      .cls-1, .cls-2, .cls-3 {
        stroke-width: 0px;
      }

      .cls-2 {
        fill: none;
      }

      .cls-3 {
        fill: #152445;
      }
    </style>
  </defs>
  <g id="Layer_1-2" data-name="Layer 1">
    <g>
      <g>
        <g>
          <g>
            <path class="cls-3" d="M917.59,930.85v281.73c0,4.31-2.38,7.64-7.15,9.9h-63.57c-2.73,0-5.59-.82-8.62-2.5-3.03-1.64-5.33-3.55-7.01-5.76l-107.26-151.14c-1.64-2.2-3.36-3.09-5.13-2.7-1.78.43-2.66,2.01-2.66,4.74v147.46c0,4.31-2.46,7.64-7.15,9.9h-64.49c-4.33,0-7.68-2.41-9.93-7.22v-184.08c40.72-23.38,70.85-63.16,81.31-110.27l6.02,7.87,107.1,151.18c1.64,2.2,3.36,3.16,5.13,2.89,1.78-.3,2.66-1.81,2.66-4.54v-150.32c2.26-4.58,5.6-7.04,9.9-7.04h63.7c4.77,2.26,7.15,5.59,7.15,9.9Z"/>
            <path class="cls-3" d="M1168.84,920.97h-217.48c-2.75,0-5.08.97-7,2.88-1.92,1.92-2.88,4.26-2.88,7v56.02c0,2.75.96,5.08,2.88,7,1.92,1.92,4.25,2.88,7,2.88h58.49c3.02,0,5.42.97,7.21,2.88,1.78,1.92,2.68,4.26,2.68,7v205.94c0,2.75.96,5.08,2.88,7,1.92,1.92,4.25,2.88,7,2.88h61.78c3.02,0,5.42-.96,7.21-2.88,1.78-1.92,2.68-4.25,2.68-7v-205.94c0-2.74.96-5.08,2.88-7,1.92-1.92,4.25-2.88,7-2.88h57.66c3.02,0,5.42-.96,7.21-2.88,1.78-1.92,2.68-4.25,2.68-7v-56.02c0-2.74-.89-5.08-2.68-7-1.79-1.92-4.19-2.88-7.21-2.88Z"/>
            <path class="cls-3" d="M1417.2,920.97h-209.65c-2.75,0-5.08.97-7,2.88-1.92,1.92-2.88,4.26-2.88,7v281.73c0,2.75.96,5.08,2.88,7,1.92,1.92,4.25,2.88,7,2.88h209.65c2.74,0,5.08-.96,7-2.88,1.92-1.92,2.88-4.25,2.88-7v-56.84c0-2.74-.97-5.08-2.88-7-1.92-1.92-4.26-2.88-7-2.88h-128.09c-2.75,0-5.08-.96-7-2.88-1.92-1.92-2.88-4.25-2.88-7v-15.65c0-2.74.96-5.08,2.88-7,1.92-1.92,4.25-2.88,7-2.88h111.62c2.74,0,5.08-.96,7-2.88,1.92-1.92,2.88-4.25,2.88-7v-56.84c0-2.74-.97-5.08-2.88-7-1.92-1.92-4.26-2.88-7-2.88h-111.62c-2.75,0-5.08-.96-7-2.88-1.92-1.92-2.88-4.25-2.88-7v-17.3c0-2.74.96-5.08,2.88-7,1.92-1.92,4.25-2.88,7-2.88h128.09c2.74,0,5.08-.96,7-2.88,1.92-1.92,2.88-4.25,2.88-7v-56.02c0-2.74-.97-5.08-2.88-7-1.92-1.92-4.26-2.88-7-2.88Z"/>
            <path class="cls-3" d="M1745.89,1129.8l-58.49-23.07c-2.75-1.09-5.43-1.09-8.03,0-2.61,1.1-4.6,2.75-5.97,4.94-7.14,11.53-16.82,20.94-29.04,28.21-12.22,7.28-25.88,10.92-40.98,10.92-10.44,0-20.25-2.2-29.45-6.6-9.2-4.4-17.24-10.19-24.09-17.34-6.87-7.16-12.22-15.49-16.06-24.99-3.85-9.5-5.77-19.47-5.77-29.94s1.92-20.09,5.77-29.73c3.84-9.64,9.2-18.1,16.06-25.4,6.86-7.3,14.89-13.15,24.09-17.55,9.2-4.4,19.01-6.61,29.45-6.61,15.92,0,29.51,3.36,40.78,10.09,11.26,6.73,20.86,16.41,28.83,29.04,1.37,2.2,3.43,3.85,6.18,4.94,2.74,1.1,5.49,1.1,8.24,0l58.49-23.06c2.47-1.1,4.12-2.89,4.94-5.36.82-2.47.55-4.8-.82-7-7.97-12.63-16.68-24.23-26.15-34.8-9.47-10.57-20.12-19.56-31.92-26.98-11.81-7.42-24.99-13.18-39.54-17.3-14.56-4.12-30.89-6.18-49.01-6.18-21.97,0-42.57,4.12-61.78,12.36-19.22,8.24-36.04,19.36-50.45,33.36-14.42,14.01-25.74,30.48-33.98,49.43-8.24,18.95-12.36,39.13-12.36,60.55s4.12,41.6,12.36,60.55c8.24,18.95,19.56,35.42,33.98,49.43,14.42,14,31.23,25.13,50.45,33.36,19.22,8.24,39.81,12.36,61.78,12.36,17.57,0,33.63-2.05,48.19-6.15,14.55-4.09,27.8-9.83,39.75-17.2,11.95-7.38,22.72-16.32,32.33-26.84,9.61-10.52,18.39-22.2,26.36-35.07,1.37-2.47,1.65-4.87.82-7.21-.82-2.33-2.47-4.05-4.94-5.15Z"/>
            <path class="cls-3" d="M591.37,1048.51c-13.06,3.26-26.71,4.97-40.75,4.97s-27.73-1.71-40.79-4.97v164.05c0,2.89,1.05,5.3,3.12,7.27,1.88,1.74,4.44,2.63,7.01,2.63h61.27c2.57,0,5.13-.89,7.01-2.63,2.07-1.97,3.13-4.37,3.13-7.27v-164.05Z"/>
          </g>
          <g>
            <path class="cls-3" d="M535.41,1273.01h-25.5v-13.79h66.17v13.79h-25.5v66.63h-15.16v-66.63Z"/>
            <path class="cls-3" d="M598.25,1259.22v31.48c5.06-6.55,11.26-8.5,17.69-8.5,16.08,0,23.21,10.92,23.21,27.57v29.87h-14.02v-29.75c0-10.34-5.4-14.71-12.87-14.71-8.27,0-14.01,7.01-14.01,15.51v28.95h-14.01v-80.42h14.01Z"/>
            <path class="cls-3" d="M662.93,1316.32c.92,7.01,7.01,12.06,16.89,12.06,5.17,0,11.95-1.95,15.16-5.28l8.96,8.85c-5.97,6.2-15.74,9.19-24.36,9.19-19.53,0-31.13-12.06-31.13-30.21s11.72-29.64,30.1-29.64,30.79,11.72,28.61,35.04h-44.23ZM693.72,1304.71c-.92-7.35-6.66-11.03-14.71-11.03-7.58,0-13.78,3.67-15.85,11.03h30.56Z"/>
            <path class="cls-3" d="M809.65,1305.29c0,20.8-13.21,35.96-35.39,35.96-20.56,0-35.27-12.29-35.27-35.04h14.94c0,13.79,6.66,20.8,20.33,20.8s20.22-9.54,20.22-21.71v-31.94h-24.24v-14.13h39.41v46.07Z"/>
            <path class="cls-3" d="M878.01,1311.38c0,16.31-11.14,29.52-29.53,29.52s-29.41-13.21-29.41-29.52,11.26-29.53,29.3-29.53,29.64,13.33,29.64,29.53ZM833.08,1311.38c0,8.62,5.17,16.66,15.4,16.66s15.4-8.04,15.4-16.66-5.97-16.77-15.4-16.77c-10.11,0-15.4,8.27-15.4,16.77Z"/>
            <path class="cls-3" d="M943.49,1283l-34.58,80.3h-15.4l10.57-24.59-22.63-55.72h16.31l8.62,24.47,5.4,15.97,5.86-15.62,10.34-24.81h15.51Z"/>
            <path class="cls-3" d="M1054.13,1299.89c-.23,20.8-12.98,41.59-41.24,41.59s-41.36-20.33-41.36-41.47,13.56-42.39,41.36-42.39,41.48,21.26,41.24,42.28ZM986.46,1300.23c.35,13.21,7.47,27.35,26.42,27.35s26.08-14.25,26.31-27.46c.23-13.56-7.35-28.72-26.31-28.72s-26.77,15.28-26.42,28.84Z"/>
            <path class="cls-3" d="M1068.84,1339.64v-43.54h-10.57v-12.29h10.57v-3.79c0-15.16,10.22-22.17,21.6-22.17,4.94,0,10.11,1.61,14.71,4.6l-5.17,10.45c-2.99-1.95-5.75-2.99-8.62-2.99-4.82,0-8.5,3.22-8.5,10.11v3.79h16.66v12.29h-16.66v43.54h-14.02Z"/>
            <path class="cls-3" d="M1155.57,1273.01h-25.5v-13.79h66.17v13.79h-25.5v66.63h-15.16v-66.63Z"/>
            <path class="cls-3" d="M1200.84,1316.32c.92,7.01,7.01,12.06,16.89,12.06,5.17,0,11.95-1.95,15.16-5.28l8.96,8.85c-5.97,6.2-15.74,9.19-24.36,9.19-19.53,0-31.13-12.06-31.13-30.21s11.72-29.64,30.1-29.64,30.79,11.72,28.61,35.04h-44.23ZM1231.63,1304.71c-.92-7.35-6.66-11.03-14.71-11.03-7.58,0-13.78,3.67-15.85,11.03h30.56Z"/>
            <path class="cls-3" d="M1304.47,1332.4c-6.55,6.43-13.44,8.96-21.83,8.96-16.43,0-30.1-9.88-30.1-29.98s13.67-29.99,30.1-29.99c8.04,0,14.25,2.3,20.45,8.39l-8.85,9.31c-3.33-2.99-7.47-4.48-11.37-4.48-9.42,0-16.31,6.89-16.31,16.77,0,10.8,7.35,16.54,16.08,16.54,4.48,0,8.96-1.27,12.41-4.71l9.42,9.19Z"/>
            <path class="cls-3" d="M1324.69,1259.22v31.48c5.06-6.55,11.26-8.5,17.69-8.5,16.08,0,23.21,10.92,23.21,27.57v29.87h-14.02v-29.75c0-10.34-5.4-14.71-12.87-14.71-8.27,0-14.01,7.01-14.01,15.51v28.95h-14.01v-80.42h14.01Z"/>
            <path class="cls-3" d="M1419.13,1339.64v-29.64c0-8.62-4.71-15.16-13.67-15.16s-14.47,7.24-14.47,15.86v28.95h-13.9v-56.75h12.52l.92,7.7c5.74-5.63,11.49-8.5,18.61-8.5,13.33,0,24.01,10,24.01,27.8v29.75h-14.01Z"/>
            <path class="cls-3" d="M1501.5,1311.38c0,16.31-11.14,29.52-29.53,29.52s-29.41-13.21-29.41-29.52,11.26-29.53,29.3-29.53,29.64,13.33,29.64,29.53ZM1456.58,1311.38c0,8.62,5.17,16.66,15.4,16.66s15.4-8.04,15.4-16.66-5.97-16.77-15.4-16.77c-10.11,0-15.4,8.27-15.4,16.77Z"/>
            <path class="cls-3" d="M1525.05,1259.34v80.3h-13.9v-80.3h13.9Z"/>
            <path class="cls-3" d="M1593.64,1311.38c0,16.31-11.14,29.52-29.53,29.52s-29.41-13.21-29.41-29.52,11.26-29.53,29.3-29.53,29.64,13.33,29.64,29.53ZM1548.72,1311.38c0,8.62,5.17,16.66,15.4,16.66s15.4-8.04,15.4-16.66-5.97-16.77-15.4-16.77c-10.11,0-15.4,8.27-15.4,16.77Z"/>
            <path class="cls-3" d="M1647.76,1277.26l10.34,7.81-6.32,8.04c4.37,4.94,5.97,10.57,5.97,16.77,0,7.01-2.64,16.89-11.95,21.14,9.42,4.71,11.72,11.49,11.72,18.72,0,15.63-11.95,25.28-28.38,25.28s-28.72-10-28.72-25.28h13.9c0,7.35,6.78,12.18,14.82,12.18s14.36-4.37,14.36-12.18-7.35-11.37-14.36-11.37c-17.69,0-28.72-10.8-28.72-28.49s12.87-28.72,28.72-28.72c4.48,0,9.07.57,12.98,3.22l5.63-7.12ZM1614.32,1309.89c0,9.88,6.67,15.74,14.82,15.74s14.71-5.97,14.71-15.74-6.67-15.97-14.71-15.97-14.82,6.09-14.82,15.97Z"/>
            <path class="cls-3" d="M1724.96,1283l-34.58,80.3h-15.4l10.57-24.59-22.63-55.72h16.31l8.62,24.47,5.4,15.97,5.86-15.62,10.34-24.81h15.51Z"/>
            <path class="cls-3" d="M1752.99,1331.37c0,12.06-18.38,12.06-18.38,0s18.38-12.18,18.38,0ZM1751.26,1259.34v59.28h-15.05v-59.28h15.05Z"/>
          </g>
        </g>
        <circle class="cls-1" cx="550.6" cy="884.18" r="126.58"/>
      </g>
      <rect class="cls-2" x="0" width="2175.31" height="2175.31"/>
    </g>
  </g>
</svg>