<?xml version="1.0" encoding="UTF-8"?>
<svg id="Layer_2" data-name="Layer 2" xmlns="http://www.w3.org/2000/svg" viewBox="0 0 103.71 30.28">
  <defs>
    <style>
      .cls-1 {
        fill: #6e6e6e;
      }

      .cls-1, .cls-2, .cls-3 {
        stroke-width: 0px;
      }

      .cls-2 {
        fill-rule: evenodd;
      }

      .cls-2, .cls-3 {
        fill: #e2000f;
      }
    </style>
  </defs>
  <g id="Layer_1-2" data-name="Layer 1">
    <g>
      <g>
        <polygon class="cls-2" points="4.66 .4 0 .4 0 17.32 0 21.61 4.66 21.61 12.93 21.61 12.93 17.32 4.66 17.32 4.66 .4"/>
        <rect class="cls-3" x="16.39" y="8.8" width="12.73" height="4.3"/>
        <polygon class="cls-2" points="16.39 17.26 16.39 21.55 31.92 21.55 29.44 17.26 16.39 17.26"/>
        <polygon class="cls-2" points="16.39 4.64 29.44 4.64 31.92 .34 16.39 .34 16.39 4.64"/>
        <path class="cls-2" d="M43.43,0c-6.05,0-10.95,4.9-10.95,10.95s4.9,10.95,10.95,10.95,10.95-4.9,10.95-10.95S49.47,0,43.43,0ZM43.43,17.88c-3.82,0-6.92-3.1-6.92-6.92s3.1-6.92,6.92-6.92,6.92,3.1,6.92,6.92-3.1,6.92-6.92,6.92Z"/>
        <polygon class="cls-2" points="65.68 .31 68.7 4.27 71.89 4.27 71.89 14.26 61.72 .31 57.44 .31 57.44 21.52 61.72 21.52 61.72 7.57 71.89 21.52 76.17 21.52 76.17 4.27 76.17 .31 71.89 .31 65.68 .31"/>
        <rect class="cls-3" x="80.4" y=".31" width="4.28" height="21.21"/>
        <path class="cls-2" d="M99.3,9.58c-1.6-.57-2.98-.73-4.59-1.6-2.29-1.24-1.46-3.43.2-3.45l5.72-.06,3.05-3.99h-9.45c-6.03,0-7.87,9.75-1.12,11.37,1.53.37,5.74,1.48,5.98,3.05.11.72.17,2.57-2.02,2.73h-6.43l-2.84,3.95,9.17.06c3.03-.07,6.09-1.68,6.64-4.89.16-.96.62-5.39-4.32-7.15Z"/>
      </g>
      <path class="cls-1" d="M20.36,29.66l.49-.59c.34.28.69.46,1.13.46.34,0,.54-.13.54-.36h0c0-.22-.13-.33-.76-.49-.76-.19-1.25-.4-1.25-1.15h0c0-.69.55-1.15,1.32-1.15.55,0,1.02.17,1.4.48l-.43.62c-.33-.23-.66-.37-.98-.37s-.48.15-.48.33h0c0,.26.16.34.81.51.76.2,1.2.47,1.2,1.13h0c0,.76-.57,1.18-1.38,1.18-.57,0-1.15-.2-1.6-.6Z"/>
      <path class="cls-1" d="M25.11,26.44h.89l.99,1.59.99-1.59h.89v3.77h-.82v-2.46l-1.06,1.61h-.02l-1.05-1.59v2.44h-.81v-3.77Z"/>
      <path class="cls-1" d="M30.86,26.44h.83v3.77h-.83v-3.77Z"/>
      <path class="cls-1" d="M33.68,26.44h.83v3.01h1.88v.75h-2.71v-3.77Z"/>
      <path class="cls-1" d="M38.05,26.44h2.84v.74h-2.02v.76h1.78v.74h-1.78v.79h2.05v.74h-2.87v-3.77Z"/>
      <path class="cls-1" d="M42.45,29.66l.49-.59c.34.28.69.46,1.13.46.34,0,.54-.13.54-.36h0c0-.22-.13-.33-.76-.49-.76-.19-1.25-.4-1.25-1.15h0c0-.69.55-1.15,1.32-1.15.55,0,1.02.17,1.4.48l-.43.62c-.33-.23-.66-.37-.98-.37s-.48.15-.48.33h0c0,.26.16.34.81.51.76.2,1.2.47,1.2,1.13h0c0,.76-.57,1.18-1.38,1.18-.57,0-1.15-.2-1.6-.6Z"/>
      <path class="cls-1" d="M50.42,26.44h2.87v.75h-2.04v.8h1.8v.75h-1.8v1.46h-.83v-3.77Z"/>
      <path class="cls-1" d="M54.83,28.34h0c0-1.08.85-1.96,2.01-1.96s2,.87,2,1.94h0c0,1.08-.85,1.96-2.01,1.96s-2-.87-2-1.94ZM57.97,28.34h0c0-.66-.47-1.19-1.14-1.19s-1.13.53-1.13,1.17h0c0,.66.47,1.2,1.14,1.2s1.13-.53,1.13-1.17Z"/>
      <path class="cls-1" d="M60.62,26.44h1.72c.48,0,.85.13,1.1.38.21.21.32.51.32.86h0c0,.62-.33,1-.81,1.18l.92,1.35h-.97l-.81-1.21h-.65v1.21h-.83v-3.77ZM62.29,28.27c.4,0,.64-.22.64-.53h0c0-.37-.25-.55-.65-.55h-.82v1.08h.84Z"/>
      <path class="cls-1" d="M65.55,26.44h2.84v.74h-2.02v.76h1.78v.74h-1.78v.79h2.05v.74h-2.87v-3.77Z"/>
      <path class="cls-1" d="M69.88,26.44h.92l.99,2.65.99-2.65h.89l-1.52,3.79h-.73l-1.52-3.79Z"/>
      <path class="cls-1" d="M75.29,26.44h2.84v.74h-2.02v.76h1.78v.74h-1.78v.79h2.05v.74h-2.87v-3.77Z"/>
      <path class="cls-1" d="M79.94,26.44h1.72c.48,0,.85.13,1.1.38.21.21.32.51.32.86h0c0,.62-.33,1-.81,1.18l.92,1.35h-.97l-.81-1.21h-.65v1.21h-.83v-3.77ZM81.61,28.27c.4,0,.64-.22.64-.53h0c0-.37-.25-.55-.65-.55h-.82v1.08h.84Z"/>
    </g>
  </g>
</svg>